#N canvas 892 55 916 613 10;
#X obj 643 719 dac~;
#X obj 1041 399 max~;
#X obj 837 464 *~;
#X obj 804 406 max~;
#X obj 1040 339 osc~ 220;
#X floatatom 942 249 5 0 0 0 - - -, f 5;
#X obj 1002 495 sig~;
#X obj 927 501 +~;
#X obj 928 548 *~;
#X obj 804 343 osc~;
#X obj 1066 370 phasor~ 2.2;
#X obj 829 373 phasor~ 4.4;
#X obj 910 324 * 2;
#X obj 1021 96 vsl 15 128 0 127 0 0 empty empty empty 0 -9 0 10 -262144
-1 -1 0 1;
#X obj 888 97 vsl 15 128 0 127 0 0 empty empty empty 0 -9 0 10 -262144
-1 -1 4000 1;
#X obj 862 243 * 0.05;
#X obj 832 303 * 2;
#X obj 855 407 sig~ 0.75;
#X obj 1002 244 * 0.01;
#X text 843 76 Beat Tempo;
#X text 928 184 Beat Freq;
#X text 1003 76 Beat Volume;
#X obj 455 599 *~;
#X obj 473 570 vline~;
#X msg 635 470 bang;
#X obj 572 600 *~;
#X obj 589 573 vline~;
#X obj 686 601 *~;
#X obj 715 575 vline~;
#X obj 455 517 osc~ 220;
#X obj 629 92 key;
#X obj 572 519 osc~ 660;
#X obj 686 521 osc~ 1100;
#X msg 588 545 0.4 \, 0 500;
#X msg 716 548 0.3 \, 0 250;
#X text 580 365 Convert key into musical note;
#X text 685 117 keyboard input;
#X text 262 132 Press keys for noises;
#X obj 323 446 spigot;
#X text 116 369 Make sure these toggles are opposite;
#X obj 400 421 tgl 15 0 empty empty empty 17 7 0 10 -262144 -1 -1 1
1;
#X obj 30 609 *~;
#X obj 48 580 vline~;
#X msg 210 480 bang;
#X obj 147 610 *~;
#X obj 164 583 vline~;
#X obj 277 612 *~;
#X obj 290 585 vline~;
#X obj 30 527 osc~ 220;
#X obj 147 529 osc~ 660;
#X obj 261 531 osc~ 1100;
#X msg 291 558 0.3 \, 0 250;
#X obj 211 446 spigot;
#X obj 267 414 tgl 15 0 empty empty empty 17 7 0 10 -262144 -1 -1 0
1;
#X msg 313 379 bang;
#X msg 53 557 0.5 \, 0 1250;
#X msg 162 555 0.4 \, 0 500;
#X msg 478 546 0.5 \, 0 1200;
#X obj 402 677 *~;
#X obj 411 651 sig~ 0.5;
#X obj 622 679 *~;
#X obj 148 503 * 2.05;
#X obj 261 506 * 2.96;
#X obj 573 492 * 1.95;
#X obj 686 496 * 3.05;
#X obj 682 650 sig~ 0.5;
#X obj 506 139 vsl 15 128 0 127 0 0 empty empty empty 0 -9 0 10 -262144
-1 -1 4800 1;
#X obj 487 284 * 0.01;
#X text 493 101 Key Volume;
#X floatatom 574 173 5 0 0 0 - - -, f 5;
#X obj 631 172 pow 1.05946;
#X obj 637 242 + 0;
#X obj 632 131 - 20;
#X obj 634 197 * 4.4;
#X obj 729 275;
#X connect 1 0 7 1;
#X connect 2 0 7 0;
#X connect 3 0 2 0;
#X connect 4 0 1 0;
#X connect 5 0 16 0;
#X connect 5 0 4 0;
#X connect 6 0 8 1;
#X connect 7 0 8 0;
#X connect 8 0 0 1;
#X connect 9 0 3 0;
#X connect 10 0 1 1;
#X connect 11 0 3 1;
#X connect 12 0 11 0;
#X connect 13 0 18 0;
#X connect 14 0 15 0;
#X connect 15 0 10 0;
#X connect 15 0 12 0;
#X connect 16 0 9 0;
#X connect 17 0 2 1;
#X connect 18 0 6 0;
#X connect 22 0 60 0;
#X connect 23 0 22 1;
#X connect 24 0 57 0;
#X connect 24 0 33 0;
#X connect 24 0 34 0;
#X connect 25 0 60 0;
#X connect 26 0 25 1;
#X connect 27 0 60 0;
#X connect 28 0 27 1;
#X connect 29 0 22 0;
#X connect 30 0 72 0;
#X connect 31 0 25 0;
#X connect 32 0 27 0;
#X connect 33 0 26 0;
#X connect 34 0 28 0;
#X connect 38 0 29 0;
#X connect 38 0 24 0;
#X connect 38 0 63 0;
#X connect 38 0 64 0;
#X connect 40 0 38 1;
#X connect 41 0 58 0;
#X connect 42 0 41 1;
#X connect 43 0 55 0;
#X connect 43 0 56 0;
#X connect 43 0 51 0;
#X connect 44 0 58 0;
#X connect 45 0 44 1;
#X connect 46 0 58 0;
#X connect 47 0 46 1;
#X connect 48 0 41 0;
#X connect 49 0 44 0;
#X connect 50 0 46 0;
#X connect 51 0 47 0;
#X connect 52 0 48 0;
#X connect 52 0 43 0;
#X connect 52 0 61 0;
#X connect 52 0 62 0;
#X connect 53 0 52 1;
#X connect 54 0 40 0;
#X connect 54 0 53 0;
#X connect 55 0 42 0;
#X connect 56 0 45 0;
#X connect 57 0 23 0;
#X connect 58 0 0 0;
#X connect 59 0 58 1;
#X connect 60 0 0 0;
#X connect 61 0 49 0;
#X connect 62 0 50 0;
#X connect 63 0 31 0;
#X connect 64 0 32 0;
#X connect 65 0 60 1;
#X connect 66 0 67 0;
#X connect 67 0 59 0;
#X connect 67 0 65 0;
#X connect 70 0 73 0;
#X connect 71 0 38 0;
#X connect 71 0 52 0;
#X connect 71 0 54 0;
#X connect 72 0 69 0;
#X connect 72 0 70 0;
#X connect 73 0 71 0;
