#N canvas -9 -9 1920 976 10;
#X obj 738 655 dac~;
#X obj 1041 399 max~;
#X obj 837 464 *~;
#X obj 804 406 max~;
#X obj 1040 339 osc~ 220;
#X floatatom 932 223 5 0 0 0 - - -, f 5;
#X text 912 373 Controls Beat;
#X obj 1002 495 sig~;
#X obj 927 501 +~;
#X obj 928 548 *~;
#X obj 804 343 osc~;
#X obj 1066 370 phasor~ 2.2;
#X obj 829 373 phasor~ 4.4;
#X obj 910 324 * 2;
#X obj 1010 104 vsl 15 128 0 127 0 0 empty empty empty 0 -9 0 10 -262144
-1 -1 7000 1;
#X obj 882 106 vsl 15 128 0 127 0 0 empty empty empty 0 -9 0 10 -262144
-1 -1 4100 1;
#X obj 862 243 * 0.05;
#X obj 832 303 * 2;
#X obj 855 407 sig~ 0.75;
#X obj 1002 244 * 0.01;
#X obj 665 398 max~;
#X obj 461 463 *~;
#X obj 428 405 max~;
#X obj 664 338 osc~ 220;
#X floatatom 556 222 5 0 0 0 - - -, f 5;
#X text 536 372 Controls Beat;
#X obj 629 499 sig~;
#X obj 551 500 +~;
#X obj 552 547 *~;
#X obj 428 342 osc~;
#X obj 534 323 * 2;
#X obj 634 103 vsl 15 128 0 127 0 0 empty empty empty 0 -9 0 10 -262144
-1 -1 1600 1;
#X obj 505 102 vsl 15 128 0 127 0 0 empty empty empty 0 -9 0 10 -262144
-1 -1 1600 1;
#X obj 486 242 * 0.05;
#X obj 456 302 * 2;
#X obj 479 406 sig~ 0.75;
#X obj 626 243 * 0.01;
#X obj 690 369 phasor~ 2.2;
#X obj 453 371 phasor~ 4.4;
#X connect 1 0 8 1;
#X connect 2 0 8 0;
#X connect 3 0 2 0;
#X connect 4 0 1 0;
#X connect 5 0 4 0;
#X connect 5 0 17 0;
#X connect 7 0 9 1;
#X connect 8 0 9 0;
#X connect 9 0 0 1;
#X connect 10 0 3 0;
#X connect 11 0 1 1;
#X connect 12 0 3 1;
#X connect 13 0 12 0;
#X connect 14 0 19 0;
#X connect 15 0 16 0;
#X connect 16 0 11 0;
#X connect 16 0 13 0;
#X connect 17 0 10 0;
#X connect 18 0 2 1;
#X connect 19 0 7 0;
#X connect 20 0 27 1;
#X connect 21 0 27 0;
#X connect 22 0 21 0;
#X connect 23 0 20 0;
#X connect 24 0 23 0;
#X connect 24 0 34 0;
#X connect 26 0 28 1;
#X connect 27 0 28 0;
#X connect 28 0 0 0;
#X connect 29 0 22 0;
#X connect 30 0 38 0;
#X connect 31 0 36 0;
#X connect 32 0 33 0;
#X connect 33 0 30 0;
#X connect 33 0 37 0;
#X connect 34 0 29 0;
#X connect 35 0 21 1;
#X connect 36 0 26 0;
#X connect 37 0 20 1;
#X connect 38 0 22 1;
